<svg width="361" height="54" viewBox="0 0 361 54" fill="none" xmlns="http://www.w3.org/2000/svg">
<path d="M33.7351 54V20.25H0L6.66269 33.6656H20.2411V47.1656L33.7351 54Z" fill="#1D2BA4"/>
<path d="M20.4097 13.4832L13.494 0H53.9761V40.5L40.4708 33.5956V13.4832H20.4097Z" fill="#1D2BA4"/>
<path d="M100.705 47.9281C96.8713 47.9281 93.6391 47.3265 91.0083 46.1233C88.415 44.9201 86.4419 43.2845 85.0889 41.2165C83.7735 39.1109 83.1158 36.7045 83.1158 33.9973H93.2633C93.2633 34.9749 93.5264 35.8773 94.0526 36.7045C94.6163 37.4941 95.4431 38.1145 96.5331 38.5657C97.623 39.0169 99.0135 39.2425 100.705 39.2425C102.171 39.2425 103.411 39.0545 104.426 38.6785C105.478 38.3025 106.267 37.7761 106.793 37.0993C107.357 36.4225 107.639 35.6141 107.639 34.6741C107.639 33.4709 107.132 32.5497 106.117 31.9105C105.102 31.2337 103.392 30.8012 100.987 30.6132L98.3371 30.3876C94.0901 30.0116 90.7076 28.6768 88.1895 26.3832C85.6714 24.0896 84.4124 21.044 84.4124 17.2464C84.4124 14.5392 85.0325 12.2268 86.2728 10.3092C87.5506 8.39161 89.3358 6.92521 91.6284 5.91001C93.921 4.89481 96.627 4.38721 99.7464 4.38721C103.129 4.38721 105.985 4.95121 108.315 6.07921C110.683 7.20721 112.487 8.80521 113.727 10.8732C114.968 12.9036 115.588 15.2724 115.588 17.9796H105.44C105.44 17.0772 105.215 16.25 104.764 15.498C104.313 14.746 103.655 14.1632 102.791 13.7496C101.964 13.2984 100.949 13.0728 99.7464 13.0728C98.6189 13.0728 97.6606 13.2608 96.8713 13.6368C96.1196 13.9752 95.5371 14.464 95.1237 15.1032C94.7478 15.7424 94.5599 16.4568 94.5599 17.2464C94.5599 18.2992 94.917 19.2016 95.6311 19.9536C96.3451 20.7056 97.5854 21.1568 99.3518 21.3072L102.001 21.5328C105.083 21.796 107.808 22.4728 110.176 23.5632C112.544 24.616 114.404 26.0636 115.757 27.906C117.11 29.7484 117.786 32.0045 117.786 34.6741C117.786 37.3437 117.091 39.6749 115.701 41.6677C114.348 43.6605 112.393 45.2021 109.838 46.2925C107.319 47.3829 104.275 47.9281 100.705 47.9281Z" fill="black"/>
<path d="M137.584 47.2513C134.202 47.2513 131.496 46.8377 129.466 46.0105C127.474 45.1833 126.027 43.8109 125.125 41.8933C124.223 39.9757 123.772 37.3813 123.772 34.1101L123.829 7.54561H133.3L133.243 34.3921C133.243 35.7833 133.6 36.8549 134.314 37.6069C135.066 38.3213 136.137 38.6785 137.528 38.6785H141.812V47.2513H137.584ZM119.262 23.112V15.6672H141.812V23.112H119.262Z" fill="black"/>
<path d="M166.031 46.8001V37.6633H164.339V27.906C164.339 26.4772 164.001 25.4244 163.325 24.7476C162.686 24.0332 161.615 23.676 160.111 23.676C159.397 23.676 158.345 23.6948 156.954 23.7324C155.564 23.77 154.098 23.8264 152.557 23.9016C151.016 23.9768 149.607 24.052 148.329 24.1272V15.5544C149.231 15.4792 150.302 15.404 151.542 15.3288C152.783 15.2536 154.06 15.1972 155.376 15.1596C156.729 15.122 157.969 15.1032 159.097 15.1032C162.291 15.1032 164.997 15.5732 167.215 16.5132C169.47 17.4532 171.18 18.8632 172.345 20.7432C173.547 22.6232 174.149 25.0108 174.149 27.906V46.8001H166.031ZM156.165 47.5897C153.985 47.5897 152.05 47.1949 150.358 46.4053C148.667 45.6157 147.333 44.4877 146.356 43.0213C145.416 41.5173 144.946 39.7313 144.946 37.6633C144.946 35.3321 145.567 33.4521 146.807 32.0233C148.047 30.5568 149.757 29.4852 151.937 28.8084C154.117 28.1316 156.616 27.7932 159.435 27.7932H165.467V33.0949H159.435C158.044 33.0949 156.973 33.4521 156.221 34.1665C155.47 34.8433 155.094 35.7645 155.094 36.9301C155.094 38.0581 155.47 38.9793 156.221 39.6937C156.973 40.3705 158.044 40.7089 159.435 40.7089C160.337 40.7089 161.126 40.5585 161.803 40.2577C162.517 39.9193 163.099 39.3553 163.55 38.5657C164.001 37.7761 164.264 36.6857 164.339 35.2945L166.707 37.5505C166.519 39.6937 165.993 41.5173 165.129 43.0213C164.302 44.4877 163.137 45.6157 161.633 46.4053C160.168 47.1949 158.345 47.5897 156.165 47.5897Z" fill="black"/>
<path d="M195.211 47.9281C192.505 47.9281 190.156 47.4957 188.164 46.6309C186.172 45.7285 184.5 44.5253 183.147 43.0213C181.831 41.5173 180.835 39.8065 180.159 37.8889C179.52 35.9713 179.201 33.9785 179.201 31.9105V30.7824C179.201 28.6016 179.539 26.5336 180.215 24.5784C180.929 22.6232 181.963 20.8936 183.316 19.3896C184.669 17.8856 186.341 16.7012 188.333 15.8364C190.325 14.9716 192.618 14.5392 195.211 14.5392C198.067 14.5392 200.585 15.1032 202.765 16.2312C204.945 17.3592 206.674 18.9196 207.952 20.9124C209.267 22.8676 210 25.1236 210.15 27.6804H200.116C200.003 26.4396 199.533 25.3868 198.706 24.522C197.917 23.6572 196.752 23.2248 195.211 23.2248C193.896 23.2248 192.806 23.5632 191.941 24.24C191.114 24.9168 190.494 25.8568 190.081 27.06C189.667 28.2632 189.461 29.692 189.461 31.3465C189.461 32.8881 189.63 34.2605 189.968 35.4637C190.344 36.6669 190.945 37.6069 191.772 38.2837C192.637 38.9229 193.783 39.2425 195.211 39.2425C196.263 39.2425 197.147 39.0545 197.861 38.6785C198.575 38.3025 199.138 37.7761 199.552 37.0993C199.965 36.3849 200.228 35.5577 200.341 34.6177H210.376C210.226 37.2497 209.474 39.5621 208.121 41.5549C206.805 43.5477 205.039 45.1081 202.822 46.2361C200.604 47.3641 198.067 47.9281 195.211 47.9281Z" fill="black"/>
<path d="M237.677 46.8001L228.488 32.2489H224.316L236.493 15.6672H247.205L235.648 31.2901V26.3268L249.121 46.8001H237.677ZM215.578 46.8001V5.62801H225.839V46.8001H215.578Z" fill="black"/>
<path d="M262.839 47.8153C259.306 47.8153 256.562 46.6685 254.608 44.3749C252.691 42.0437 251.733 38.4905 251.733 33.7153V15.6672H261.993V33.9973C261.993 35.3885 262.406 36.5165 263.233 37.3813C264.06 38.2461 265.169 38.6785 266.559 38.6785C267.95 38.6785 269.077 38.2461 269.942 37.3813C270.806 36.5165 271.239 35.3509 271.239 33.8845V15.6672H281.499V46.8001H273.381V33.7153H273.945C273.945 36.9113 273.531 39.5621 272.704 41.6677C271.915 43.7357 270.731 45.2773 269.153 46.2925C267.574 47.3077 265.62 47.8153 263.29 47.8153H262.839Z" fill="black"/>
<path d="M289.526 46.8001V5.62801H299.786V46.8001H289.526ZM286.031 13.0728V5.62801H299.786V13.0728H286.031Z" fill="black"/>
<path d="M326.182 46.8001V37.6633H324.491V27.906C324.491 26.4772 324.153 25.4244 323.476 24.7476C322.837 24.0332 321.766 23.676 320.263 23.676C319.549 23.676 318.496 23.6948 317.106 23.7324C315.715 23.77 314.25 23.8264 312.709 23.9016C311.168 23.9768 309.758 24.052 308.48 24.1272V15.5544C309.382 15.4792 310.454 15.404 311.694 15.3288C312.934 15.2536 314.212 15.1972 315.527 15.1596C316.88 15.122 318.121 15.1032 319.248 15.1032C322.443 15.1032 325.149 15.5732 327.366 16.5132C329.621 17.4532 331.331 18.8632 332.496 20.7432C333.699 22.6232 334.3 25.0108 334.3 27.906V46.8001H326.182ZM316.317 47.5897C314.137 47.5897 312.201 47.1949 310.51 46.4053C308.819 45.6157 307.484 44.4877 306.507 43.0213C305.568 41.5173 305.098 39.7313 305.098 37.6633C305.098 35.3321 305.718 33.4521 306.958 32.0233C308.199 30.5568 309.909 29.4852 312.088 28.8084C314.268 28.1316 316.768 27.7932 319.586 27.7932H325.618V33.0949H319.586C318.196 33.0949 317.125 33.4521 316.373 34.1665C315.621 34.8433 315.245 35.7645 315.245 36.9301C315.245 38.0581 315.621 38.9793 316.373 39.6937C317.125 40.3705 318.196 40.7089 319.586 40.7089C320.488 40.7089 321.278 40.5585 321.954 40.2577C322.668 39.9193 323.251 39.3553 323.702 38.5657C324.153 37.7761 324.416 36.6857 324.491 35.2945L326.859 37.5505C326.671 39.6937 326.145 41.5173 325.28 43.0213C324.453 44.4877 323.288 45.6157 321.785 46.4053C320.319 47.1949 318.496 47.5897 316.317 47.5897Z" fill="black"/>
<path d="M341.156 46.8001V15.6672H349.274V29.2032H349.161C349.161 24.8416 350.063 21.42 351.867 18.9384C353.709 16.4568 356.34 15.216 359.76 15.216H361V24.0144H358.632C356.34 24.0144 354.554 24.6348 353.277 25.8756C352.036 27.1164 351.416 28.9024 351.416 31.2336V46.8001H341.156Z" fill="black"/>
</svg>
